<svg width="373" height="178" viewBox="0 0 373 178" fill="none" xmlns="http://www.w3.org/2000/svg">
<path d="M100.5 53.6836C100.5 53.6836 100.125 56.1347 100.5 58.1505C100.81 59.8685 102.599 62.9609 102.599 62.9609C102.732 63.2587 103.152 63.1671 103.152 62.8464C103.152 60.9451 102.864 57.2342 101.053 53.5691C100.92 53.2942 100.5 53.3859 100.5 53.6836Z" fill="#808285"/>
<path d="M100.522 65.2058C100.39 64.9309 100.036 64.8851 99.8373 65.0912L99.8152 58.746L100.478 58.7918L100.522 65.2058Z" fill="#808285"/>
<path d="M101.119 66.7635C100.014 67.3132 99.2628 66.7635 99.2628 66.7635L99.7489 65.2515C99.771 65.1828 99.7931 65.137 99.8373 65.0912C100.036 64.885 100.39 64.9308 100.522 65.2057C100.522 65.2057 100.522 65.2287 100.544 65.2287L101.119 66.7635Z" fill="#6D6E71"/>
<path d="M100.589 57.4862L99.4396 58.1276C99.1523 58.288 99.2407 58.7232 99.5942 58.7461L100.898 58.8149C100.876 58.8378 101.185 58.3109 100.589 57.4862Z" fill="#6D6E71"/>
<path d="M361.642 151.129H349.865L361.841 146.868L361.642 151.129Z" fill="#0F214F"/>
<path d="M16.4504 141.233L10.5731 127.146C9.95445 125.634 7.76702 125.725 7.28093 127.283C5.91102 131.567 4.07712 138.37 3.59102 145.013C3.17121 150.671 7.63445 155.527 13.3571 155.527C13.799 155.527 14.1304 155.183 14.1525 154.748L14.1967 149.823L16.4504 141.233Z" fill="#0F214F"/>
<path d="M35.8499 145.081L27.034 154.84C26.106 155.87 24.7361 156.42 23.3441 156.351L18.3064 156.077C14.506 155.87 11.5453 152.755 11.5453 148.998V145.081L13.8653 142.195H22.173L35.8278 139.424V145.081H35.8499Z" fill="#0F214F"/>
<path d="M44.1355 135.575C44.1355 153.305 58.6078 167.644 76.4606 167.644C87.9501 167.644 98.0254 161.689 103.77 152.732C102.4 152.137 101.296 151.014 100.743 149.571C98.7546 144.44 95.0647 135.369 92.5459 132.116C88.9444 127.489 78.4492 117.112 62.2977 117.387C57.7682 117.456 53.084 117.8 48.5324 119.403C45.7264 124.122 44.1355 129.665 44.1355 135.575Z" fill="#0F214F"/>
<path d="M31.8728 145.333C31.8728 163.063 46.3451 177.426 64.1979 177.426C82.0507 177.426 96.523 163.063 96.523 145.333C96.523 127.604 82.0507 113.264 64.1979 113.264C54.0563 113.264 44.9973 117.914 39.0758 125.176C35.2755 129.826 32.7787 135.552 32.0717 141.806C31.9391 142.951 31.8728 144.142 31.8728 145.333Z" fill="#0F214F"/>
<path d="M64.1978 173.325C79.7686 173.325 92.3912 160.793 92.3912 145.333C92.3912 129.874 79.7686 117.341 64.1978 117.341C48.6271 117.341 36.0045 129.874 36.0045 145.333C36.0045 160.793 48.6271 173.325 64.1978 173.325Z" fill="#E6E7E8"/>
<path d="M64.1979 167.347C76.4495 167.347 86.3813 157.491 86.3813 145.333C86.3813 133.176 76.4495 123.32 64.1979 123.32C51.9463 123.32 42.0144 133.176 42.0144 145.333C42.0144 157.491 51.9463 167.347 64.1979 167.347Z" fill="#797471"/>
<path d="M64.1979 164.735C74.9973 164.735 83.752 156.049 83.752 145.333C83.752 134.618 74.9973 125.932 64.1979 125.932C53.3985 125.932 44.6438 134.618 44.6438 145.333C44.6438 156.049 53.3985 164.735 64.1979 164.735Z" fill="#605C57"/>
<path d="M49.571 145.333C49.571 153.351 56.1333 159.856 64.198 159.856C72.2848 159.856 78.825 153.351 78.825 145.333C78.825 144.371 78.7366 143.432 78.5598 142.539C77.2341 135.85 71.3126 130.811 64.198 130.811C57.0834 130.811 51.1619 135.85 49.8362 142.539C49.6594 143.432 49.571 144.371 49.571 145.333Z" fill="#757475"/>
<path d="M49.8362 142.539C53.7912 145.654 58.7626 147.51 64.198 147.51C69.6334 147.51 74.6048 145.654 78.5598 142.539C77.2341 135.85 71.3126 130.811 64.198 130.811C57.0834 130.811 51.1619 135.85 49.8362 142.539Z" fill="white"/>
<path d="M42.6774 145.333C42.6774 133.559 52.3329 123.961 64.1979 123.961C76.0629 123.961 85.7184 133.537 85.7184 145.333C85.7184 157.108 76.0629 166.705 64.1979 166.705C52.3329 166.705 42.6774 157.108 42.6774 145.333ZM43.1635 145.333C43.1635 156.856 52.598 166.201 64.1979 166.201C75.7978 166.201 85.2324 156.833 85.2324 145.333C85.2324 133.811 75.7978 124.465 64.1979 124.465C52.598 124.465 43.1635 133.834 43.1635 145.333Z" fill="#605C57"/>
<path d="M41.7715 145.334C41.7715 133.056 51.8247 123.068 64.198 123.068C76.5712 123.068 86.6245 133.056 86.6245 145.334C86.6245 157.612 76.5712 167.599 64.198 167.599C51.8468 167.599 41.7715 157.612 41.7715 145.334ZM42.2797 145.334C42.2797 157.337 52.112 167.095 64.2201 167.095C76.3061 167.095 86.1605 157.337 86.1605 145.334C86.1605 133.33 76.3282 123.572 64.2201 123.572C52.112 123.572 42.2797 133.33 42.2797 145.334Z" fill="#605C57"/>
<path d="M62.1431 128.703H66.8051C66.9156 128.703 67.004 128.612 67.004 128.497V127.283C67.004 127.168 66.9156 127.077 66.8051 127.077H62.1431C62.0326 127.077 61.9442 127.168 61.9442 127.283V128.497C61.9442 128.612 62.0326 128.703 62.1431 128.703Z" fill="#0F214F"/>
<path d="M50.4548 135.621L53.4818 132.299C53.5923 132.185 53.5702 132.002 53.4597 131.91L52.6422 131.177C52.5317 131.085 52.3549 131.085 52.2445 131.2L49.2174 134.521C49.1069 134.636 49.129 134.819 49.2395 134.911L50.057 135.644C50.1675 135.758 50.3443 135.736 50.4548 135.621Z" fill="#0F214F"/>
<path d="M47.4498 147.372V142.768C47.4498 142.653 47.3615 142.562 47.251 142.562H45.9915C45.881 142.562 45.7926 142.653 45.7926 142.768V147.372C45.7926 147.487 45.881 147.578 45.9915 147.578H47.251C47.3615 147.578 47.4498 147.487 47.4498 147.372Z" fill="#0F214F"/>
<path d="M53.7691 158.482L50.5874 155.321C50.4769 155.206 50.3002 155.206 50.1897 155.321L49.4164 156.1C49.3059 156.214 49.3059 156.375 49.4164 156.489L52.598 159.65C52.7085 159.765 52.8853 159.765 52.9957 159.65L53.7691 158.871C53.8795 158.78 53.8795 158.596 53.7691 158.482Z" fill="#0F214F"/>
<path d="M66.2748 161.964H61.6127C61.5022 161.964 61.4138 162.055 61.4138 162.17V163.384C61.4138 163.499 61.5022 163.59 61.6127 163.59H66.2748C66.3852 163.59 66.4736 163.499 66.4736 163.384V162.17C66.4736 162.055 66.3852 161.964 66.2748 161.964Z" fill="#0F214F"/>
<path d="M77.455 155.71L74.2733 158.871C74.1628 158.986 74.1628 159.146 74.2733 159.261L75.0466 160.04C75.1571 160.154 75.3339 160.154 75.4443 160.04L78.6261 156.878C78.7365 156.764 78.7365 156.604 78.6261 156.489L77.8527 155.71C77.7423 155.596 77.5655 155.596 77.455 155.71Z" fill="#0F214F"/>
<path d="M80.9681 143.295V147.899C80.9681 148.014 81.0565 148.105 81.167 148.105H82.4263C82.5368 148.105 82.6252 148.014 82.6252 147.899V143.295C82.6252 143.18 82.5368 143.089 82.4263 143.089H81.167C81.0565 143.089 80.9681 143.18 80.9681 143.295Z" fill="#0F214F"/>
<path d="M74.6489 132.185L77.8305 135.346C77.941 135.461 78.1178 135.461 78.2282 135.346L79.0016 134.567C79.112 134.453 79.112 134.292 79.0016 134.178L75.8199 131.017C75.7094 130.902 75.5327 130.902 75.4222 131.017L74.6489 131.796C74.5384 131.887 74.5384 132.07 74.6489 132.185Z" fill="#0F214F"/>
<path d="M64.1979 150.144C66.8703 150.144 69.0367 147.99 69.0367 145.334C69.0367 142.677 66.8703 140.523 64.1979 140.523C61.5255 140.523 59.3591 142.677 59.3591 145.334C59.3591 147.99 61.5255 150.144 64.1979 150.144Z" fill="#E6E7E8"/>
<path d="M64.198 149.754C66.6507 149.754 68.6391 147.775 68.6391 145.333C68.6391 142.892 66.6507 140.912 64.198 140.912C61.7452 140.912 59.7568 142.892 59.7568 145.333C59.7568 147.775 61.7452 149.754 64.198 149.754Z" fill="#6D6E71"/>
<path d="M29.3318 140.409L32.0716 141.783C32.7787 135.506 35.2754 129.803 39.0758 125.153C35.4743 128.566 32.16 133.422 29.3318 140.409Z" fill="#0F214F"/>
<path d="M261.286 153.374C267.031 162.238 277.062 168.103 288.485 168.103C306.338 168.103 320.81 153.74 320.81 136.01C320.81 128.382 318.115 121.373 313.629 115.852C309.674 114.593 305.101 113.882 299.842 113.905C292.772 113.928 273.394 118.647 264.932 150.739C264.777 151.335 264.468 151.862 264.048 152.297C263.407 152.961 262.501 153.351 261.529 153.351H261.286V153.374Z" fill="#0F214F"/>
<path d="M264.07 152.32L270.522 154.657H331.814C335.327 155.092 340.033 154.657 340.033 154.657C340.033 154.657 339.79 144.463 334.686 134.292C329.56 124.076 319.507 113.86 299.864 113.928C292.794 113.951 273.416 118.67 264.954 150.762C264.777 151.358 264.49 151.885 264.07 152.32Z" fill="#0F214F"/>
<path d="M268.732 145.792C268.732 163.521 283.205 177.884 301.057 177.884C318.91 177.884 333.383 163.521 333.383 145.792C333.383 128.062 318.91 113.722 301.057 113.722C290.916 113.722 281.857 118.372 275.935 125.634C272.135 130.284 269.638 136.01 268.931 142.264C268.799 143.432 268.732 144.6 268.732 145.792Z" fill="#0F214F"/>
<path d="M301.057 173.784C316.628 173.784 329.251 161.251 329.251 145.792C329.251 130.332 316.628 117.8 301.057 117.8C285.487 117.8 272.864 130.332 272.864 145.792C272.864 161.251 285.487 173.784 301.057 173.784Z" fill="#E6E7E8"/>
<path d="M301.057 167.805C313.309 167.805 323.241 157.949 323.241 145.792C323.241 133.634 313.309 123.778 301.057 123.778C288.806 123.778 278.874 133.634 278.874 145.792C278.874 157.949 288.806 167.805 301.057 167.805Z" fill="#797471"/>
<path d="M301.057 165.194C311.857 165.194 320.612 156.507 320.612 145.792C320.612 135.076 311.857 126.39 301.057 126.39C290.258 126.39 281.503 135.076 281.503 145.792C281.503 156.507 290.258 165.194 301.057 165.194Z" fill="#605C57"/>
<path d="M286.408 145.792C286.408 153.809 292.971 160.314 301.035 160.314C309.122 160.314 315.662 153.809 315.662 145.792C315.662 144.83 315.574 143.89 315.397 142.997C314.071 136.308 308.15 131.269 301.035 131.269C293.921 131.269 287.999 136.308 286.673 142.997C286.519 143.913 286.408 144.83 286.408 145.792Z" fill="#757475"/>
<path d="M286.696 142.997C290.651 146.112 295.622 147.968 301.057 147.968C306.493 147.968 311.464 146.112 315.419 142.997C314.093 136.308 308.172 131.269 301.057 131.269C293.943 131.269 287.999 136.308 286.696 142.997Z" fill="white"/>
<path d="M279.537 145.792C279.537 134.018 289.192 124.42 301.057 124.42C312.922 124.42 322.578 133.995 322.578 145.792C322.578 157.566 312.922 167.164 301.057 167.164C289.192 167.164 279.537 157.589 279.537 145.792ZM280.023 145.792C280.023 157.314 289.457 166.66 301.057 166.66C312.657 166.66 322.092 157.291 322.092 145.792C322.092 134.293 312.657 124.924 301.057 124.924C289.457 124.924 280.023 134.293 280.023 145.792Z" fill="#605C57"/>
<path d="M278.631 145.792C278.631 133.514 288.684 123.526 301.057 123.526C313.43 123.526 323.484 133.514 323.484 145.792C323.484 158.07 313.43 168.057 301.057 168.057C288.684 168.057 278.631 158.07 278.631 145.792ZM279.117 145.792C279.117 157.795 288.949 167.553 301.057 167.553C313.143 167.553 322.998 157.795 322.998 145.792C322.998 133.789 313.165 124.03 301.057 124.03C288.949 124.03 279.117 133.789 279.117 145.792Z" fill="#605C57"/>
<path d="M298.98 129.161H303.642C303.753 129.161 303.841 129.07 303.841 128.955V127.741C303.841 127.627 303.753 127.535 303.642 127.535H298.98C298.87 127.535 298.781 127.627 298.781 127.741V128.955C298.781 129.07 298.87 129.161 298.98 129.161Z" fill="#0F214F"/>
<path d="M287.292 136.102L290.319 132.781C290.43 132.666 290.408 132.483 290.297 132.391L289.48 131.658C289.369 131.567 289.192 131.567 289.082 131.681L286.055 135.002C285.944 135.117 285.966 135.3 286.077 135.392L286.894 136.125C287.027 136.217 287.204 136.217 287.292 136.102Z" fill="#0F214F"/>
<path d="M284.287 147.83V143.226C284.287 143.111 284.199 143.02 284.088 143.02H282.829C282.719 143.02 282.63 143.111 282.63 143.226V147.83C282.63 147.945 282.719 148.036 282.829 148.036H284.088C284.199 148.059 284.287 147.945 284.287 147.83Z" fill="#0F214F"/>
<path d="M290.607 158.963L287.425 155.802C287.314 155.687 287.138 155.687 287.027 155.802L286.254 156.581C286.143 156.695 286.143 156.856 286.254 156.97L289.436 160.131C289.546 160.246 289.723 160.246 289.833 160.131L290.607 159.353C290.717 159.238 290.717 159.055 290.607 158.963Z" fill="#0F214F"/>
<path d="M303.112 162.422H298.45C298.34 162.422 298.251 162.513 298.251 162.628V163.842C298.251 163.957 298.34 164.048 298.45 164.048H303.112C303.223 164.048 303.311 163.957 303.311 163.842V162.628C303.311 162.536 303.223 162.422 303.112 162.422Z" fill="#0F214F"/>
<path d="M314.314 156.168L311.133 159.329C311.022 159.444 311.022 159.604 311.133 159.719L311.906 160.498C312.017 160.612 312.193 160.612 312.304 160.498L315.485 157.337C315.596 157.222 315.596 157.062 315.485 156.947L314.712 156.168C314.602 156.054 314.403 156.054 314.314 156.168Z" fill="#0F214F"/>
<path d="M317.805 143.753V148.357C317.805 148.472 317.894 148.563 318.004 148.563H319.264C319.374 148.563 319.463 148.472 319.463 148.357V143.753C319.463 143.638 319.374 143.547 319.264 143.547H318.004C317.894 143.547 317.805 143.638 317.805 143.753Z" fill="#0F214F"/>
<path d="M311.486 132.643L314.668 135.804C314.778 135.919 314.955 135.919 315.066 135.804L315.839 135.025C315.949 134.911 315.949 134.751 315.839 134.636L312.657 131.475C312.547 131.36 312.37 131.36 312.26 131.475L311.486 132.254C311.376 132.368 311.376 132.529 311.486 132.643Z" fill="#0F214F"/>
<path d="M301.057 150.602C303.73 150.602 305.896 148.448 305.896 145.792C305.896 143.135 303.73 140.981 301.057 140.981C298.385 140.981 296.219 143.135 296.219 145.792C296.219 148.448 298.385 150.602 301.057 150.602Z" fill="#E6E7E8"/>
<path d="M301.057 150.213C303.51 150.213 305.498 148.233 305.498 145.792C305.498 143.35 303.51 141.371 301.057 141.371C298.605 141.371 296.616 143.35 296.616 145.792C296.616 148.233 298.605 150.213 301.057 150.213Z" fill="#6D6E71"/>
<path d="M25.642 140.798H10.8162C9.82191 140.798 8.93811 141.393 8.54039 142.287L6.2425 147.67C5.55755 149.251 6.77278 151.014 8.51829 150.969L22.858 150.51C25.0675 150.442 26.8351 148.632 26.8351 146.433V141.989C26.8351 141.348 26.3049 140.798 25.642 140.798Z" fill="#0F214F"/>
<path d="M369.066 122.404L361.554 133.559L360.493 147.601H361.863C367.387 147.601 371.85 143.157 371.85 137.683V123.251C371.85 121.739 369.906 121.144 369.066 122.404Z" fill="#0F214F"/>
<path d="M7.65655 97.4356C7.59026 105.636 16.7597 129.024 22.1288 141.989C23.3441 144.944 27.6084 144.921 28.7574 141.92C28.9562 141.394 29.1551 140.89 29.3539 140.409C33.2427 130.857 37.9931 125.267 43.1633 121.992C44.931 120.869 46.7428 120.022 48.5766 119.38C53.1061 117.777 57.7903 117.456 62.3419 117.364C78.4713 117.112 88.9885 127.466 92.59 132.093C95.1089 135.346 98.7988 144.417 100.787 149.548C101.34 150.992 102.444 152.114 103.814 152.71C104.543 153.03 105.339 153.213 106.156 153.213L261.352 153.351H261.595C262.568 153.351 263.473 152.961 264.114 152.297C264.534 151.885 264.843 151.335 264.998 150.74C273.46 118.647 292.838 113.928 299.908 113.906C305.167 113.883 309.718 114.616 313.696 115.853C324.588 119.289 330.974 126.779 334.752 134.27C339.878 144.463 340.099 154.634 340.099 154.634L360.603 147.258C362.194 146.685 363.343 145.288 363.586 143.638C366.702 122.381 361.841 100.253 359.013 89.9451C357.974 86.1197 355.853 82.6607 352.936 79.9577C347.236 74.6892 337.315 66.0534 332.631 64.8622C332.587 64.8393 332.543 64.8393 332.476 64.8393C332.079 64.7706 331.681 64.8393 331.327 65.0225L329.383 65.9846C329.383 65.9846 314.69 40.1688 309.21 27.9824C308.525 26.4705 308.79 24.7755 309.763 23.5385C310.006 23.2407 310.315 22.9429 310.646 22.7138L310.978 22.4848C311.42 22.0953 311.574 21.4998 311.464 20.9958C311.353 20.5377 311.066 20.1483 310.58 19.9421C304.659 17.3307 288.132 10.2297 278.366 8.05352C261.485 4.29682 200.547 -7.52305 136.206 9.84026L132.317 10.8481C131.345 11.1001 131.102 12.2684 131.72 12.8869C131.809 13.0014 131.941 13.0701 132.074 13.1617L133.355 13.8031L139.94 17.1017C140.028 17.1475 140.094 17.1704 140.161 17.2162C142.768 18.7281 143.652 22.0495 142.149 24.6609L120.253 62.7777C117.58 67.4277 111.592 69.0083 106.93 66.3053C104.654 64.9768 102.533 63.4878 101.428 61.9989C101.207 61.7011 100.876 61.5178 100.522 61.472C100.257 61.4262 99.9919 61.472 99.7489 61.5865C97.5173 62.6173 92.4133 65.2287 89.1874 68.7564C89.1874 68.7564 49.4604 69.4665 19.0134 81.5154C16.2957 82.592 11.5453 84.4246 9.13692 89.8535C8.25312 91.8235 7.67864 94.3203 7.65655 97.4356ZM229.933 26.9058C229.911 23.8821 232.452 21.454 235.501 21.5914L259.96 22.668C272.068 23.1949 282.961 30.0669 288.596 40.7185L297.345 57.2801C301.344 64.5186 297.544 71.299 291.534 71.299H236.385C232.916 71.299 230.11 68.5273 230.088 65.0683L229.933 26.9058ZM126.97 67.382L152.158 26.7225C152.932 25.4626 154.302 24.7067 155.782 24.6838L218.422 24.2715C220.3 24.2486 221.824 25.7604 221.824 27.6388V62.8693C221.824 68.2295 217.449 72.2153 212.036 72.2153L131.897 72.536H131.875H129.864C127.213 72.5589 125.578 69.6497 126.97 67.382Z" fill="#D1D3D4"/>
<path d="M213.008 87.4711C213.008 88.3874 212.567 89.2579 211.793 89.968C210.445 91.2508 208.081 92.0754 205.408 92.0754C201.21 92.0754 197.807 90.0138 197.807 87.4483C197.807 84.9056 201.21 82.821 205.408 82.821C208.037 82.821 210.335 83.6228 211.705 84.8598C212.544 85.6157 213.008 86.509 213.008 87.4711Z" fill="#0F214F"/>
<path opacity="0.2" d="M219.482 87.4711C219.482 88.227 219.173 88.9142 218.665 89.4182C218.157 89.9221 217.472 90.2199 216.72 90.2199L211.815 89.968C212.589 89.2579 213.031 88.3874 213.031 87.4711C213.031 86.509 212.544 85.6386 211.727 84.8826L216.72 84.7223C218.223 84.7223 219.482 85.9593 219.482 87.4711Z" fill="#58595B"/>
<path d="M201.077 88.7997L216.455 89.3724C217.516 89.3724 218.378 88.5019 218.378 87.4482C218.378 86.3945 217.516 85.524 216.455 85.524L201.077 86.0967C200.017 86.0967 199.155 86.3945 199.155 87.4482C199.155 88.5249 200.017 88.7997 201.077 88.7997Z" fill="#F1F2F2"/>
<path opacity="0.55" d="M309.144 27.9824C314.646 40.1917 329.317 65.9846 329.317 65.9846L330.046 65.6181L331.283 65.0225C331.283 65.0225 331.239 64.8851 331.173 64.6561C330.135 61.4949 322.313 38.4279 310.138 24.0196C310.028 23.8821 309.94 23.7676 309.829 23.6531C309.807 23.6073 309.763 23.5614 309.719 23.5156H309.697C308.702 24.7755 308.459 26.4935 309.144 27.9824Z" fill="#FDFFFB"/>
<path opacity="0.55" d="M101.406 61.9988C102.025 62.8235 102.931 63.6481 104.013 64.427C104.897 65.0913 105.891 65.7097 106.908 66.3053C107.681 66.7634 108.521 67.0841 109.338 67.3132C113.47 68.3898 117.999 66.6489 120.231 62.7776L142.127 24.6609C142.923 23.2865 143.033 21.706 142.591 20.3086C142.194 19.0488 141.354 17.9263 140.117 17.2162C140.05 17.1704 139.962 17.1246 139.896 17.1017L133.311 13.8032C133.311 13.8032 133.289 13.826 133.267 13.8718C133.223 13.9177 133.179 14.0093 133.112 14.1009C130.704 17.4682 108.476 48.7588 101.627 61.6782C101.539 61.7698 101.472 61.8843 101.406 61.9988Z" fill="#FDFFFB"/>
<path d="M229.977 26.2186L254.415 27.2952C266.523 27.8221 277.416 34.6941 283.05 45.3457L291.8 61.9073C293.7 65.3433 293.832 68.6648 292.838 71.2074C298.075 70.3141 301.035 64.0147 297.345 57.3031L288.596 40.7415C282.961 30.0898 272.069 23.2178 259.96 22.6909L235.501 21.6143C232.695 21.4769 230.309 23.5385 229.977 26.2186Z" fill="#58595B"/>
<path d="M229.734 65.0913L229.58 26.9058C229.58 26.6309 229.602 26.379 229.624 26.1499L229.668 25.8292L254.437 26.9287C266.611 27.4556 277.703 34.465 283.381 45.1625L292.131 61.7241C293.965 65.0226 294.318 68.4357 293.192 71.322L293.125 71.5052L292.926 71.551C292.484 71.6427 292.043 71.6656 291.556 71.6656H236.407C232.739 71.6885 229.734 68.7335 229.734 65.0913ZM291.49 62.0677L282.741 45.5061C277.195 35.0148 266.324 28.1657 254.415 27.6388L230.309 26.5851C230.309 26.6996 230.309 26.7913 230.309 26.9058L230.463 65.0913C230.485 68.3212 233.137 70.9555 236.407 70.9555H291.556C291.932 70.9555 292.264 70.9326 292.595 70.8868C293.567 68.2296 293.169 65.1143 291.49 62.0677Z" fill="#0F214F"/>
<path d="M229.734 65.0913L229.58 26.9058C229.58 26.6309 229.602 26.379 229.624 26.1499L229.668 25.8292L254.437 26.9287C266.611 27.4556 277.703 34.465 283.381 45.1625L292.131 61.7241C293.965 65.0226 294.318 68.4357 293.192 71.322L293.125 71.5052L292.926 71.551C292.484 71.6427 292.043 71.6656 291.556 71.6656H236.407C232.739 71.6885 229.734 68.7335 229.734 65.0913ZM291.49 62.0677L282.741 45.5061C277.195 35.0148 266.324 28.1657 254.415 27.6388L230.309 26.5851C230.309 26.6996 230.309 26.7913 230.309 26.9058L230.463 65.0913C230.485 68.3212 233.137 70.9555 236.407 70.9555H291.556C291.932 70.9555 292.264 70.9326 292.595 70.8868C293.567 68.2296 293.169 65.1143 291.49 62.0677Z" fill="#0F214F"/>
<path d="M128.031 72.009C127.986 71.3905 128.141 70.7491 128.517 70.1306L152.777 30.9602C153.528 29.7461 154.854 29.0131 156.268 29.0131L216.61 28.6237C218.422 28.6008 219.902 30.0668 219.902 31.8535V65.7784C219.902 67.0611 219.637 68.2752 219.173 69.3747C220.83 67.7254 221.868 65.4577 221.868 62.8692V27.6387C221.868 25.7604 220.322 24.2485 218.466 24.2714L155.826 24.6838C154.346 24.7067 152.976 25.4626 152.203 26.7224L127.014 67.3818C125.932 69.054 126.55 71.0698 128.031 72.009Z" fill="#58595B"/>
<path d="M127.832 72.3069L127.677 72.2153V72.032C127.633 71.299 127.81 70.5889 128.207 69.9475L152.468 30.777C153.285 29.4484 154.699 28.6696 156.268 28.6467L216.61 28.2573C217.604 28.2573 218.51 28.6238 219.195 29.311C219.88 29.9982 220.255 30.8915 220.255 31.8536V65.7785C220.255 67.0841 219.99 68.344 219.482 69.5123L219.416 69.6268C217.494 71.5281 214.886 72.5589 212.08 72.5589L129.909 72.9025C129.135 72.9025 128.428 72.6963 127.832 72.3069ZM219.526 65.7785V31.8536C219.526 31.0748 219.217 30.3647 218.665 29.8149C218.112 29.2652 217.361 28.9903 216.588 28.9674L156.246 29.3568C154.942 29.3568 153.749 30.0211 153.042 31.1435L128.782 70.314C128.495 70.7721 128.362 71.2761 128.34 71.78C128.782 72.032 129.312 72.1694 129.842 72.1694L212.014 71.8258C214.621 71.8258 217.03 70.8637 218.797 69.1457C219.283 68.1149 219.526 66.9696 219.526 65.7785Z" fill="#0F214F"/>
<path d="M127.832 72.3068L127.677 72.2152V72.0319C127.633 71.2989 127.81 70.5888 128.207 69.9703L152.468 30.7999C153.285 29.4713 154.7 28.6925 156.268 28.6925L216.61 28.303C217.582 28.2572 218.488 28.6695 219.173 29.3338C219.858 30.021 220.234 30.9144 220.234 31.8765V65.7784C220.234 67.0841 219.969 68.3439 219.46 69.5122L219.394 69.6267C217.494 71.528 214.887 72.5588 212.058 72.5588L129.887 72.9024C129.158 72.9024 128.428 72.6962 127.832 72.3068ZM219.527 65.7784V31.8536C219.527 31.0747 219.217 30.3417 218.665 29.792C218.112 29.2422 217.383 28.9444 216.588 28.9444L156.246 29.3338C154.92 29.3338 153.727 30.021 153.042 31.1206L128.782 70.291C128.495 70.7491 128.34 71.2531 128.34 71.7799C128.804 72.0319 129.312 72.1693 129.865 72.1693L212.036 71.8257C214.644 71.8257 217.052 70.8637 218.842 69.1228C219.306 68.1149 219.527 66.9695 219.527 65.7784Z" fill="#0F214F"/>
<path opacity="0.55" d="M229.933 26.9057L230.088 65.0911C230.11 68.5271 232.916 71.3217 236.385 71.3217H291.534C297.544 71.3217 301.345 64.5413 297.345 57.3028L288.574 40.7413C282.939 30.0897 272.047 23.2177 259.938 22.6909L235.479 21.6143C232.452 21.4768 229.911 23.882 229.933 26.9057Z" fill="#FDFFFB"/>
<path opacity="0.55" d="M218.422 24.2944L155.782 24.7068C154.302 24.7068 152.932 25.4856 152.158 26.7455L126.97 67.4049C125.578 69.6727 127.213 72.5818 129.887 72.5589L212.058 72.2382C217.45 72.2382 221.824 68.2524 221.824 62.8922V27.6618C221.824 25.7834 220.3 24.2715 218.422 24.2944Z" fill="#FDFFFB"/>
<path d="M348.893 97.8021L352.473 107.217L358.681 123.572L363.918 120.617C365.001 119.999 365.531 118.762 365.2 117.571C364.89 116.402 364.426 114.799 363.852 112.989C363.101 110.607 362.106 107.881 360.957 105.316C359.632 102.361 358.063 99.5888 356.295 97.7563C355.787 97.2524 355.102 96.9545 354.373 96.9087C353.357 96.8629 351.81 96.9087 350.197 97.3668C349.755 97.4585 349.313 97.6189 348.893 97.8021Z" fill="#AD0303"/>
<path d="M348.893 97.8021L352.473 107.217L360.957 105.316C359.631 102.361 358.063 99.5889 356.295 97.7563C355.787 97.2524 355.102 96.9545 354.373 96.9087C353.356 96.8629 351.81 96.9087 350.197 97.3668C349.755 97.4585 349.313 97.6189 348.893 97.8021Z" fill="#FCA713"/>
<path opacity="0.47" d="M350.175 97.3439L358.041 115.348L363.829 112.966C362.194 107.858 359.565 101.123 356.273 97.7333C355.765 97.2293 355.08 96.9315 354.351 96.8857C353.356 96.8628 351.788 96.9086 350.175 97.3439Z" fill="#E6E7E8"/>
<path d="M348.893 97.8021L345.844 98.7642L355.831 125.153L358.681 123.549L348.893 97.8021Z" fill="#58595B"/>
<path d="M13.2245 89.8533L12.7826 113.516C12.7826 113.516 9.55672 112.714 8.78339 111.775L9.15901 91.4568C9.13691 91.4568 10.6615 89.7846 13.2245 89.8533Z" fill="#58595B"/>
<path d="M8.7613 111.409C8.7613 111.409 5.69017 102.521 9.11481 92.3044L8.7613 111.409Z" fill="#D1D3D4"/>
<path d="M364.117 134.728L346.352 141.966C345.314 142.401 344.651 143.432 344.717 144.555L345.005 149.273C345.093 150.533 346.993 152.068 348.23 151.701L364.294 145.975C365.509 145.608 366.304 144.44 366.194 143.157L365.442 135.484C365.354 134.888 364.691 134.499 364.117 134.728Z" fill="#0F214F"/>
<path d="M370.215 124.145L362.703 135.3L361.642 149.342H363.012C368.536 149.342 372.999 144.898 372.999 139.424V124.992C373.021 123.48 371.055 122.908 370.215 124.145Z" fill="#0F214F"/>
<path d="M13.8653 142.172L7.988 128.085C7.36934 126.573 5.18192 126.664 4.69583 128.222C3.32593 132.506 1.49203 139.309 1.00594 145.952C0.586134 151.61 5.04935 156.466 10.772 156.466C11.2139 156.466 11.5453 156.122 11.5674 155.687L11.6116 150.762L13.8653 142.172Z" fill="#0F214F"/>
<path d="M26.6584 142.172H11.8325C10.8383 142.172 9.95446 142.768 9.55675 143.661L7.25886 149.044C6.57391 150.625 7.78914 152.388 9.53466 152.343L23.8744 151.885C26.0839 151.816 27.8516 150.006 27.8516 147.807V143.363C27.8516 142.699 27.3213 142.172 26.6584 142.172Z" fill="#0F214F"/>
<path d="M14.6607 122.977L10.9266 135.117L13.8653 142.172H22.1951L14.6607 122.977Z" fill="#0F214F"/>
<path d="M299.003 19.3464C299.003 19.3464 217.715 -4.68251 142.834 13.9863C142.834 13.9863 216.522 3.17444 299.003 19.3464Z" fill="#E6E7E8"/>
<path d="M331.151 64.6788C330.112 61.5177 322.291 38.4508 310.116 24.0425C314.712 30.0898 330.024 65.6409 330.024 65.6409L331.261 65.0454C331.261 65.0454 331.217 64.9079 331.151 64.6788Z" fill="#BCBEC0"/>
<path d="M309.697 23.5385C309.741 23.5849 309.785 23.6312 309.83 23.6776C309.785 23.6544 309.741 23.5849 309.697 23.5385Z" fill="#BCBEC0"/>
<path d="M101.406 61.9988C102.025 62.8235 102.931 63.6481 104.013 64.427C106.952 55.0581 132.008 15.7731 133.245 13.8489C133.201 13.8948 133.157 13.9864 133.09 14.078C130.682 17.4453 108.454 48.7358 101.605 61.6552C101.539 61.7698 101.472 61.8843 101.406 61.9988Z" fill="#D1D3D4"/>
<path d="M109.338 67.2903C113.47 68.3669 118 66.626 120.231 62.7548L142.127 24.638C142.923 23.2636 143.033 21.683 142.591 20.2857C140.117 23.6072 120.01 50.5913 109.338 67.2903Z" fill="#D1D3D4"/>
<path d="M273.483 76.3385C278.432 76.3156 326.776 78.7666 326.776 78.7666L95.7277 79.4309C95.7277 79.4309 107.328 77.8504 111.26 77.69C171.691 75.239 217.206 76.5447 273.483 76.3385Z" fill="#E6E7E8"/>
<path d="M101.207 62.3195C102.246 63.648 104.102 65.0683 106.731 66.6031C108.3 67.5193 110.023 67.9775 111.791 67.9775C112.675 67.9775 113.558 67.8629 114.42 67.6339C117.027 66.9237 119.215 65.2745 120.54 62.938L142.437 24.8212C144.027 22.0724 143.077 18.499 140.315 16.8955C140.227 16.8497 140.161 16.8038 140.072 16.758L133.51 13.4824L133.333 13.7802C133.333 13.7802 133.267 13.8718 133.112 14.078L133.223 14.1238L139.785 17.3994C139.874 17.4452 139.918 17.4681 139.984 17.491C142.415 18.9113 143.254 22.0266 141.862 24.4547L119.966 62.5714C118.706 64.7476 116.696 66.2823 114.265 66.9237C111.835 67.5651 109.316 67.2215 107.129 65.9845C104.499 64.4498 102.688 63.0525 101.737 61.7697L101.627 61.6552C101.561 61.7697 101.494 61.8842 101.45 61.9988L101.207 62.3195Z" fill="#422603"/>
<path d="M308.813 28.1427C311.531 34.1901 316.546 43.6276 320.899 51.5992C325.251 59.5707 328.941 66.0533 329.008 66.1907L329.184 66.4885L331.438 65.3661L331.283 65.0454C331.283 65.0454 331.239 64.9079 331.173 64.6789L329.494 65.5264C327.859 62.6173 314.602 39.1837 309.498 27.8449C309.255 27.318 309.144 26.7683 309.144 26.2185C309.144 25.371 309.409 24.5234 309.962 23.8362C309.896 23.7446 309.807 23.653 309.741 23.5613L309.454 23.3323C308.327 24.6838 308.084 26.5392 308.813 28.1427Z" fill="#422603"/>
<g opacity="0.32">
<path opacity="0.32" d="M247.212 71.3217L279.714 30.0669C283.315 32.9302 286.364 36.5266 288.596 40.7185L290.54 44.3836L269.329 71.2989H247.212V71.3217Z" fill="#D1D3D4"/>
<path opacity="0.32" d="M229.933 28.2344L235.148 21.6143C235.258 21.6143 235.369 21.6143 235.501 21.6143L256.536 22.5306L230.044 56.1577L229.933 28.2344Z" fill="#D1D3D4"/>
<path opacity="0.32" d="M236.385 71.3218C232.916 71.3218 230.11 68.5501 230.088 65.0912V62.7089L261.529 22.7825C265.749 23.1719 269.793 24.3172 273.483 26.1269L237.888 71.2989H236.385V71.3218Z" fill="#D1D3D4"/>
<path opacity="0.32" d="M274.035 71.3219L292.418 47.98L297.345 57.303C297.699 57.9215 297.964 58.54 298.207 59.1584L288.618 71.3219H274.035V71.3219Z" fill="#D1D3D4"/>
</g>
<g opacity="0.32">
<path opacity="0.32" d="M171.691 72.3755L209.539 24.3402L218.422 24.2714C220.3 24.2485 221.824 25.7604 221.824 27.6387V36.8014L193.874 72.2838L171.691 72.3755Z" fill="#D1D3D4"/>
<path opacity="0.32" d="M129.886 72.5368C127.213 72.5368 125.578 69.6505 126.97 67.3828L136.471 52.0353L158.036 24.6618L180.263 24.5243L142.481 72.491L129.886 72.5368Z" fill="#D1D3D4"/>
<path opacity="0.32" d="M147.695 72.468L185.478 24.5013L200.149 24.4097L162.322 72.4222L147.695 72.468Z" fill="#D1D3D4"/>
<path opacity="0.32" d="M212.058 72.2152L198.58 72.261L221.824 42.7572V61.2887L213.274 72.1465C212.876 72.1923 212.456 72.2152 212.058 72.2152Z" fill="#D1D3D4"/>
</g>
<path d="M229.734 65.0913L229.58 26.9058C229.58 26.6309 229.602 26.3789 229.624 26.1728C229.977 23.2865 232.585 21.1333 235.523 21.2478L259.982 22.3244C272.179 22.8513 283.249 29.8378 288.927 40.5582L297.677 57.1198C299.621 60.6245 299.908 64.3583 298.472 67.3132C297.367 69.581 295.335 71.1387 292.926 71.551C292.484 71.6426 292.042 71.6655 291.556 71.6655H236.407C232.739 71.6884 229.734 68.7335 229.734 65.0913ZM230.331 26.2644C230.309 26.4476 230.287 26.6767 230.287 26.9058L230.441 65.0913C230.463 68.3212 233.115 70.9555 236.385 70.9555H291.534C291.976 70.9555 292.374 70.9096 292.772 70.8409C294.959 70.4744 296.793 69.0542 297.787 66.9926C299.113 64.2438 298.848 60.762 297.014 57.4405L288.264 40.8789C282.718 30.3876 271.87 23.5385 259.938 23.0116L235.479 21.935C235.413 21.935 235.324 21.935 235.258 21.935C232.783 21.9579 230.64 23.8134 230.331 26.2644Z" fill="#0F214F"/>
<path d="M127.832 72.3069C126.086 71.1845 125.578 68.9396 126.661 67.1987L151.849 26.5393C152.689 25.1649 154.169 24.3632 155.782 24.3403L218.422 23.928C219.416 23.9051 220.366 24.2945 221.095 25.0046C221.802 25.7147 222.2 26.6538 222.2 27.6388V62.8694C222.2 65.4349 221.205 67.8401 219.416 69.6268C217.494 71.5281 214.886 72.5589 212.08 72.5589L129.909 72.9025C129.135 72.9025 128.428 72.6963 127.832 72.3069ZM218.422 24.638L155.782 25.0504C154.412 25.0733 153.175 25.7605 152.446 26.9058L127.257 67.5652C126.285 69.1458 126.97 70.9096 128.207 71.7113C128.693 72.032 129.268 72.1924 129.864 72.1924L212.036 71.8488C214.665 71.8488 217.096 70.8867 218.863 69.1229C220.521 67.4736 221.449 65.2517 221.449 62.8694V27.6388C221.449 26.8371 221.139 26.0812 220.543 25.5085C219.968 24.9358 219.217 24.638 218.422 24.638C218.422 24.638 218.422 24.638 218.422 24.638Z" fill="#0F214F"/>
<path d="M275.471 120.457C275.471 120.457 270.08 126.802 265.374 133.88C264.512 135.163 263.142 138.324 261.949 141.279C261.463 142.928 260.999 144.578 260.623 145.975C260.049 148.105 258.127 149.594 255.917 149.64C249.532 149.755 237.114 149.571 228.718 149.663C228.718 149.663 253.995 148.609 256.337 145.54C258.657 142.516 259.784 137.179 264.092 132.162C269.506 125.84 275.118 120.526 275.471 120.457Z" fill="#E6E7E8"/>
<path d="M92.3912 125.931C92.3912 125.931 96.6114 130.879 100.279 136.423C100.942 137.431 102.025 139.882 102.953 142.195C103.328 143.478 103.704 144.784 103.991 145.86C104.433 147.532 105.936 148.678 107.681 148.724C112.675 148.815 113.868 148.563 120.43 148.655C120.43 148.655 109.184 147.922 107.35 145.517C105.538 143.157 104.654 138.988 101.296 135.071C97.0533 130.146 92.6785 125.977 92.3912 125.931Z" fill="#E6E7E8"/>
<path d="M340.033 124.03C340.033 124.03 329.935 109.92 313.718 107.194C297.5 104.468 284.088 111.019 281.547 113.722C281.547 113.722 278.255 113.447 286.74 107.766C301.367 97.9853 326.798 100.826 336.476 115.349C338.84 118.853 342.066 124.236 340.033 124.03Z" fill="#E6E7E8"/>
<path d="M86.492 119.632C86.492 119.632 76.6155 111.546 62.9607 111.89C49.3059 112.233 38.9654 118.395 37.1757 120.548C37.1757 120.548 33.8614 118.716 40.512 114.203C51.3386 106.896 68.0646 105.109 80.7914 113.15C85.9175 116.357 88.1933 119.518 86.492 119.632Z" fill="#E6E7E8"/>
<path d="M169.393 70.085C169.039 70.1078 168.664 70.1307 168.266 70.1535L169.393 70.085Z" fill="#E6E7E8"/>
<path d="M168.266 70.1765L166.962 70.2692C167.426 70.2229 167.868 70.1997 168.266 70.1765Z" fill="#E6E7E8"/>
<path d="M9.1369 89.8305C9.44623 89.6701 31.6518 77.1401 103.372 72.4672L89.1874 68.7563C89.1874 68.7563 49.4604 69.4664 19.0134 81.5153C16.2957 82.569 11.5232 84.4016 9.1369 89.8305Z" fill="#E6E7E8"/>
<path d="M114.531 134.728C113.072 115.623 114.111 89.189 114.442 84.9742C114.972 78.148 120.806 70.5429 121.866 69.4434C122.75 68.5042 124.252 66.1219 124.849 65.1369C130.881 55.3787 148.712 25.7603 148.888 25.4626C150.523 22.7825 153.484 21.1103 156.622 21.1103L219.924 21.0187C219.924 21.0187 219.924 21.0187 219.946 21.0187C221.758 21.0187 223.194 21.5455 224.211 22.5763C225.293 23.6758 225.846 25.3022 225.802 27.318C225.713 31.0289 225.868 36.5952 226.089 44.2918C226.199 48.4151 226.332 53.088 226.442 58.3107C226.995 83.05 227.547 86.5318 229.005 95.8777C230.088 102.727 229.116 124.328 229.072 125.221C229.072 139.813 218.024 151.243 203.927 151.243H132.405C123.258 151.243 115.238 143.821 114.531 134.728ZM219.968 21.7288L156.666 21.8204C153.771 21.8204 151.032 23.3552 149.529 25.8291C149.352 26.1269 131.5 55.7452 125.468 65.5035C124.694 66.7404 123.28 68.9624 122.396 69.9245C121.38 71.0011 115.702 78.3999 115.171 85.02C114.84 89.2348 113.801 115.6 115.26 134.659C115.923 143.409 123.634 150.533 132.428 150.533H203.949C217.648 150.533 228.365 139.423 228.387 125.198C228.387 124.969 229.403 102.75 228.32 95.9694C226.84 86.6005 226.288 83.0958 225.735 58.3107C225.625 53.088 225.492 48.4151 225.382 44.2918C225.161 36.5952 225.006 31.006 225.094 27.2951C225.139 25.4855 224.653 24.0194 223.725 23.0574C222.841 22.164 221.581 21.7288 219.968 21.7288Z" fill="#422603"/>
<path d="M125.247 61.0138C125.247 61.0138 124.805 63.8772 125.247 66.2595C125.622 68.2982 127.721 71.9175 127.721 71.9175C127.876 72.2611 128.384 72.1466 128.384 71.7801C128.384 69.5352 128.031 65.16 125.91 60.8535C125.755 60.5557 125.247 60.6702 125.247 61.0138Z" fill="#808285"/>
<path d="M125.291 74.5747C125.136 74.254 124.716 74.2082 124.495 74.4372L124.473 66.9696L125.247 67.0154L125.291 74.5747Z" fill="#808285"/>
<path d="M125.998 76.4072C124.694 77.0487 123.833 76.4072 123.833 76.4072L124.407 74.6205C124.429 74.5518 124.473 74.483 124.517 74.4372C124.738 74.2081 125.158 74.231 125.313 74.5746L125.335 74.5976L125.998 76.4072Z" fill="#6D6E71"/>
<path d="M125.379 65.4807L124.009 66.2366C123.678 66.4199 123.788 66.9467 124.186 66.9696L125.711 67.0613C125.711 67.0613 126.064 66.4428 125.379 65.4807Z" fill="#6D6E71"/>
<path d="M306.426 38.1759L318.711 60.3954C319.507 61.8385 318.468 63.5794 316.811 63.5794H307.686C305.874 63.5794 304.195 62.5715 303.377 60.968L289.723 34.5795C289.192 33.5716 289.944 32.3576 291.092 32.3576H296.594C300.66 32.3805 304.438 34.6024 306.426 38.1759Z" fill="#939598"/>
<path d="M308.746 23.3094C309.255 22.92 308.614 20.4919 306.449 21.5914C304.283 22.6909 304.394 27.1806 304.924 28.1198C305.874 29.8836 323.837 63.5793 324.743 65.2744C326.864 69.2602 337.095 77.896 340.033 86.3485C340.033 86.3485 349.777 92.4417 350.175 97.3437L356.273 97.7331C356.273 97.7331 355.367 89.6242 354.903 86.9441C354.594 85.1345 352.871 81.7901 348.871 79.4078C344.894 77.0255 338.641 71.0698 329.14 66.4655C327.218 65.5264 312.215 36.5494 308.371 29.0361C307.642 27.5929 307.465 25.9207 308.039 24.4089C308.238 23.9507 308.459 23.5385 308.746 23.3094Z" fill="#E6E7E8"/>
</svg>
