<svg width="675" height="597" viewBox="0 0 675 597" fill="none" xmlns="http://www.w3.org/2000/svg">
<path d="M423.801 289.069C475.072 235.915 475.072 149.734 423.801 96.5801C372.53 43.4257 289.403 43.4257 238.132 96.5801C186.861 149.735 186.861 235.915 238.132 289.069C289.403 342.224 372.53 342.224 423.801 289.069Z" fill="#FBB667"/>
<path opacity="0.8" d="M175.634 204.508C171.723 197.155 164.189 192.184 155.527 192.184C152.235 192.184 149.098 192.917 146.27 194.2C144.966 185.77 137.918 179.333 129.411 179.333C126.87 179.333 124.484 179.906 122.318 180.937C119.844 174.362 113.701 169.689 106.476 169.689C97.3289 169.689 89.8608 177.18 89.5073 186.572C86.3698 187.946 83.6079 190.031 81.3542 192.619C79.697 188.473 75.742 185.564 71.1462 185.564C66.3516 185.564 62.2861 188.725 60.7394 193.146C58.1985 191.749 55.3041 190.947 52.2107 190.947C43.9251 190.947 36.9651 196.651 34.7114 204.485H175.634V204.508Z" fill="#F1F2F2"/>
<path d="M542.324 447.502C509.248 431.971 472.283 427.253 435.981 427.94C361.653 429.36 288.761 452.61 214.433 452.198C187.344 452.038 159.88 448.762 133.366 454.649C99.6931 462.117 56.8728 494.392 39.6165 525.293H617.426C604.301 490.2 575.379 463.01 542.324 447.502Z" fill="#FFEDC5"/>
<path d="M286.861 251.352C286.861 251.352 287.811 230.415 261.275 220.29C261.275 220.29 263.153 219.809 268.345 220.932C268.345 220.932 221.768 192.779 192.934 243.884C192.934 243.884 202.06 197.727 260.236 197.017C260.236 197.017 249.984 178.692 217.482 185.907C217.482 185.907 219.36 183.09 224.729 181.853C224.729 181.853 188.14 183.319 188.162 239.784C185.82 182.448 135.355 190.42 135.355 190.42C139.928 191.428 142.049 195.139 142.049 195.139C108.907 191.52 100.312 216.465 100.312 216.465C160.631 194.52 184.096 243.151 184.096 243.151C154.666 206.134 121.015 224.368 121.015 224.368C125.787 223.062 128.174 225.192 128.174 225.192C95.1415 235.271 89.9492 270.571 89.9492 270.571C134.581 226.452 183.5 250.504 183.5 250.504C134.184 241.96 114.519 282.62 114.519 282.62C118.606 278.221 123.357 277.466 123.357 277.466C96.0916 316.43 133.057 348.247 133.057 348.247C117.303 277.534 183.5 256.529 183.5 256.529C183.5 256.529 165.912 303.785 196.624 390.052C213.814 438.339 220.2 467.385 220.2 488.643L253.055 482.229C253.055 482.229 215.891 404.277 203.297 376.239C180.561 325.638 183.986 272.678 189.311 256.552C189.311 256.552 255.817 260.24 254.359 338.878C254.359 338.878 279.326 313.108 264.456 283.238C264.456 283.238 269.405 283.536 272.366 289.904C272.366 289.904 267.351 238.455 191.984 251.329C191.962 251.352 241.787 219.168 286.861 251.352Z" fill="#0F214F"/>
<path d="M405.224 281.383C405.224 281.383 404.473 264.752 425.529 256.712C425.529 256.712 424.049 256.346 419.917 257.239C419.917 257.239 456.904 234.905 479.773 275.45C479.773 275.45 472.526 238.799 426.347 238.249C426.347 238.249 434.478 223.703 460.285 229.43C460.285 229.43 458.805 227.185 454.54 226.2C454.54 226.2 483.573 227.369 483.573 272.197C485.429 226.681 525.51 233.004 525.51 233.004C521.864 233.805 520.207 236.76 520.207 236.76C546.5 233.897 553.349 253.688 553.349 253.688C505.469 236.279 486.843 274.877 486.843 274.877C510.198 245.488 536.911 259.965 536.911 259.965C533.11 258.911 531.232 260.629 531.232 260.629C557.459 268.646 561.569 296.661 561.569 296.661C526.128 261.637 487.307 280.741 487.307 280.741C526.46 273.961 542.059 306.236 542.059 306.236C538.811 302.755 535.055 302.136 535.055 302.136C556.708 333.083 527.344 358.326 527.344 358.326C539.849 302.205 487.307 285.506 487.307 285.506C487.307 285.506 510.065 336.473 483.396 400.635C467.797 438.156 469.454 458.36 461.898 486.123L432.047 480.854C432.047 480.854 454.231 437.171 474.249 395.962C501.271 340.367 486.91 298.334 482.689 285.529C482.689 285.529 429.882 288.461 431.053 350.882C431.053 350.882 411.234 330.426 423.033 306.717C423.033 306.717 419.1 306.969 416.758 312.009C416.758 312.009 420.735 271.166 480.568 281.383C480.568 281.383 441.018 255.842 405.224 281.383Z" fill="#0F214F"/>
<path d="M49.3163 122.387C49.3163 122.387 39.727 99.091 14.0967 122.295C14.0967 122.295 23.1557 100.58 43.7483 108.918C45.7811 87.4543 70.4613 87.4543 70.4613 87.4543C62.5071 90.7529 56.4088 95.5175 53.2713 100.488C46.5765 111.002 49.3163 122.387 49.3163 122.387Z" fill="#0F214F"/>
<path d="M209.02 31.1726C209.02 31.1726 209.042 -0.00339348 169.138 5.86072C169.138 5.86072 193.376 -11.0902 210.014 12.664C226.519 -9.05153 253.121 8.60952 253.121 8.60952C242.339 6.4792 232.75 7.64744 225.878 10.3733C209.55 16.833 209.02 31.1726 209.02 31.1726Z" fill="#0F214F"/>
<path d="M335.691 126.785C335.691 126.785 336.044 110.544 315.165 117.05C315.165 117.05 325.991 106.856 335.89 117.394C342.562 105.413 356.968 112.194 356.968 112.194C351.467 111.942 346.716 113.041 343.601 115.08C336.994 119.386 335.691 126.785 335.691 126.785Z" fill="#0F214F"/>
<path d="M445.592 32.4783C445.592 32.4783 460.793 13.1222 429.529 0.569272C429.529 0.569272 451.955 -1.19454 454.364 21.254C473.365 13.2596 484.678 35.5707 484.678 35.5707C478.248 29.8899 471.465 26.5684 465.831 25.9957C453.922 24.7817 445.592 32.4783 445.592 32.4783Z" fill="#0F214F"/>
<path d="M611.393 187.098C611.393 187.098 610.664 172.69 594.8 175.37C594.8 175.37 604.897 169.689 610.355 174.866C611.681 176.126 612.609 177.684 613.095 179.539C618.552 169.231 632.141 177.638 632.141 177.638C617.293 174.248 611.393 187.098 611.393 187.098Z" fill="#0F214F"/>
<path d="M634.549 48.7879C634.549 48.7879 649.596 27.7366 624.407 12.5037C624.407 12.5037 644.89 16.6498 646.746 30.4396C647.187 33.8069 646.746 37.0826 645.398 40.2666C664.532 32.3638 674.166 60.4245 674.166 60.4245C657.108 37.8614 634.549 48.7879 634.549 48.7879Z" fill="#0F214F"/>
<path opacity="0.8" d="M491.063 154.823C490.489 150.058 486.578 146.37 481.828 146.37C481.828 138.926 475.995 132.878 468.814 132.878C464.947 132.878 461.478 134.619 459.092 137.391C458.031 137.116 456.949 136.956 455.8 136.956C455.667 136.956 455.535 136.956 455.402 136.956C453.811 131.298 448.751 127.152 442.786 127.152C435.516 127.152 429.639 133.245 429.639 140.781C429.639 140.896 429.639 141.033 429.639 141.148C428.822 140.919 427.96 140.781 427.076 140.781C425.927 140.781 424.845 140.987 423.828 141.377C422.193 138.559 419.232 136.681 415.83 136.681C412.626 136.681 409.798 138.353 408.119 140.919C407.588 140.827 407.058 140.781 406.506 140.781C401.357 140.781 397.181 145.11 397.181 150.448C397.181 150.608 397.181 150.746 397.181 150.906C395.966 150.516 394.685 150.31 393.337 150.31C389.448 150.31 385.979 152.051 383.571 154.823H491.063V154.823Z" fill="#F1F2F2"/>
<path opacity="0.8" d="M48.0347 48.3297C46.709 45.8329 44.146 44.1378 41.1852 44.1378C40.0584 44.1378 38.9978 44.3897 38.0257 44.825C37.5838 41.9616 35.1754 39.7626 32.2809 39.7626C31.4192 39.7626 30.6017 39.9687 29.8505 40.3123C29.0109 38.0675 26.9118 36.4869 24.4593 36.4869C21.3439 36.4869 18.8029 39.0525 18.6704 42.2365C17.6098 42.6946 16.6597 43.4048 15.8864 44.2981C15.3119 42.8779 13.9641 41.8929 12.4174 41.8929C10.7824 41.8929 9.39041 42.9695 8.88223 44.4814C8.02052 44.0003 7.02624 43.7254 5.96567 43.7254C3.1375 43.7254 0.773328 45.6725 0 48.3526H48.0347V48.3297Z" fill="#F1F2F2"/>
<path opacity="0.8" d="M198.524 118.539C199.099 115.882 201.375 113.912 204.114 113.912C205.727 113.912 207.208 114.622 208.246 115.744C210.014 114.164 212.201 113.133 214.632 112.835C214.808 107.933 218.697 104.016 223.492 104.016C224.354 104.016 225.193 104.153 225.967 104.382C227.359 101.221 230.43 99.0222 233.987 99.0222C238.848 99.0222 242.803 103.123 242.803 108.162C242.803 108.872 242.715 109.536 242.582 110.201C244.151 110.453 245.609 111.002 246.891 111.827C248.415 110.705 250.293 110.063 252.304 110.063C255.817 110.063 258.866 112.056 260.501 114.988C261.429 114.324 262.556 113.935 263.749 113.935C266.489 113.935 268.765 115.927 269.339 118.562H198.524V118.539Z" fill="#F1F2F2"/>
<path d="M321.97 596.923C435.395 596.923 527.344 595.456 527.344 593.647C527.344 591.838 435.395 590.371 321.97 590.371C208.545 590.371 116.596 591.838 116.596 593.647C116.596 595.456 208.545 596.923 321.97 596.923Z" fill="#4B4B4B"/>
</svg>
