<svg width="158" height="74" viewBox="0 0 158 74" fill="none" xmlns="http://www.w3.org/2000/svg">
<path d="M157.044 18.2L150.372 66.6017C149.864 70.2897 146.439 72.8782 142.705 72.3742L65.2392 61.8601C61.5272 61.3561 58.92 57.943 59.4282 54.2551L66.1009 5.85325C66.6091 2.16528 70.0338 -0.423164 73.7679 0.0807831L151.233 10.5949C154.945 11.0989 157.553 14.512 157.044 18.2Z" fill="#314123"/>
<path d="M74.5414 0.195317L73.5029 7.66291L65.9685 6.63211L66.079 5.85327C66.5871 2.16529 70.0119 -0.423165 73.7459 0.0807833L74.5414 0.195317Z" fill="#E0FA78"/>
<path d="M157.044 18.1998L156.934 18.9786L149.4 17.9478L150.438 10.4802L151.233 10.5947C154.945 11.0986 157.553 14.5118 157.044 18.1998Z" fill="#E0FA78"/>
<path d="M67.0732 54.4839L66.0348 61.9515L65.2393 61.8369C61.5273 61.333 58.92 57.9199 59.4282 54.2319L59.5387 53.4531L67.0732 54.4839Z" fill="#E0FA78"/>
<path d="M150.482 65.8228L150.372 66.6016C149.864 70.2895 146.439 72.8779 142.705 72.3739L141.909 72.2594L142.948 64.792L150.482 65.8228Z" fill="#E0FA78"/>
<path d="M81.5234 64.082L78.7173 63.6926L87.224 1.91327L90.0521 2.27977L81.5234 64.082Z" fill="#0F214F"/>
<path d="M129.249 70.5416L126.443 70.1751L134.949 8.39569L137.778 8.76219L129.249 70.5416Z" fill="#0F214F"/>
<path d="M119.969 33.6389L105.187 31.6231L106.27 23.8119L121.052 25.8048L119.969 33.6389Z" fill="#ED545C"/>
<path d="M94.8025 46.0543L91.7313 45.642L91.886 44.4966L94.9572 44.909L94.8025 46.0543Z" fill="#FFD0A1"/>
<path d="M119.814 56.2707L112.655 55.3086L113.407 49.811L120.587 50.7731L119.814 56.2707Z" fill="#ED7D89"/>
<path d="M117.583 42.2061L111.374 41.3585L112.081 36.2272L118.29 37.0748L117.583 42.2061Z" fill="#FFD0A1"/>
<path d="M146.174 46.9935L144.03 46.6957L144.826 41.0147L146.947 41.3125L146.174 46.9935Z" fill="#FF9933"/>
<path d="M77.8777 29.47L72.6633 28.7599L73.4587 23.0101L78.6731 23.6974L77.8777 29.47Z" fill="#ED545C"/>
<path d="M109.849 16.642L96.7911 14.8553L97.5866 9.08301L110.645 10.8468L109.849 16.642Z" fill="#FF9933"/>
<path d="M95.6422 32.9746C97.5702 32.9746 99.1332 31.426 99.1332 29.5157C99.1332 27.6053 97.5702 26.0567 95.6422 26.0567C93.7141 26.0567 92.1511 27.6053 92.1511 29.5157C92.1511 31.426 93.7141 32.9746 95.6422 32.9746Z" fill="#ED545C"/>
<path d="M104.392 45.8252C104.326 46.3062 103.618 46.604 102.801 46.4894C101.983 46.3749 101.387 45.8939 101.453 45.4129C101.519 44.9319 102.226 44.6342 103.044 44.7487C103.862 44.8861 104.458 45.3442 104.392 45.8252Z" fill="#FFD0A1"/>
<path d="M141.313 33.364C141.224 33.9825 140.539 34.4178 139.788 34.3032C139.037 34.1887 138.485 33.616 138.573 32.9746C138.661 32.3561 139.346 31.9209 140.098 32.0354C140.849 32.15 141.401 32.7455 141.313 33.364Z" fill="#FFD0A1"/>
<path d="M75.0273 43.3285C74.8506 44.657 73.7238 45.5962 72.5527 45.4358C71.3596 45.2755 70.5421 44.0615 70.741 42.7558C70.9177 41.4273 72.0446 40.4881 73.2156 40.6484C74.4087 40.7859 75.2041 41.9999 75.0273 43.3285Z" fill="#ED545C"/>
<path d="M99.553 59.3402C99.2657 61.4934 97.2551 63.0052 95.0898 62.7074C92.9245 62.4096 91.4 60.4168 91.6872 58.2636C91.9745 56.1104 93.9851 54.5985 96.1504 54.8963C98.3378 55.1941 99.8402 57.1869 99.553 59.3402Z" fill="#ED7D89"/>
<path d="M139.921 54.8963C139.81 55.6981 139.059 56.2707 138.242 56.1562C137.424 56.0417 136.872 55.3086 136.982 54.5069C137.093 53.7051 137.844 53.1325 138.661 53.247C139.479 53.3386 140.031 54.0717 139.921 54.8963Z" fill="#ED7D89"/>
<path d="M123.46 6.83802L103.331 4.11218C103.221 4.08927 103.155 3.99764 103.177 3.90601L103.486 1.6383C103.508 1.54667 103.596 1.47797 103.685 1.47797L123.814 4.20381C123.924 4.22671 123.99 4.31831 123.968 4.40994L123.659 6.67766C123.659 6.76928 123.571 6.83802 123.46 6.83802Z" fill="#E5FF7A"/>
<path d="M120.809 20.8799L117.715 64.0822C117.561 66.3271 115.594 67.9993 113.318 67.8389L99.4648 66.8539C97.2111 66.6936 95.5098 64.7694 95.6644 62.5245L98.7577 19.3222C98.9124 17.1003 100.857 15.4051 103.133 15.5655L116.986 16.5505C119.24 16.7108 120.963 18.6579 120.809 20.8799Z" fill="#FFD0A1"/>
<path d="M101.387 67.014L100.835 66.9682L104.723 15.6801L105.276 15.7259L101.387 67.014Z" fill="#0F214F"/>
<path d="M120.809 20.8799L116.699 20.5821L116.986 16.5275C119.24 16.7107 120.963 18.6578 120.809 20.8799Z" fill="#868586"/>
<path d="M103.132 15.5655L102.845 19.62L98.7576 19.3223C98.9122 17.1003 100.857 15.4051 103.132 15.5655Z" fill="#868586"/>
<path d="M117.693 64.0819C117.539 66.3268 115.572 67.999 113.296 67.8387L113.583 63.7841L117.693 64.0819Z" fill="#868586"/>
<path d="M99.752 62.8221L99.4647 66.8766C97.2111 66.7162 95.5098 64.7921 95.6644 62.5472L99.752 62.8221Z" fill="#868586"/>
<path d="M113.65 15.0616L107.198 14.6036C107.176 14.6036 107.132 14.6265 107.132 14.6494L107.043 15.7716C107.043 15.7945 107.065 15.8174 107.087 15.8403L113.539 16.2984C113.561 16.2984 113.606 16.2755 113.606 16.2526L113.694 15.1303C113.694 15.1074 113.672 15.0616 113.65 15.0616Z" fill="#0F214F"/>
<path d="M151.83 37.4186L144.671 70.1521C144.119 72.397 141.843 73.7942 139.567 73.2903L121.096 69.3046C118.82 68.8235 117.339 66.6245 117.759 64.3339L124.918 31.6003C125.426 29.2867 127.724 27.8207 130.044 28.3246L148.516 32.3104C150.858 32.8372 152.338 35.1279 151.83 37.4186Z" fill="#742421"/>
<path d="M130.066 28.3476L129.16 32.5396L124.94 31.6233C125.448 29.3097 127.746 27.8436 130.066 28.3476Z" fill="#FAFF69"/>
<path d="M151.83 37.4185L147.61 36.5023L148.516 32.3103C150.858 32.8372 152.338 35.1279 151.83 37.4185Z" fill="#FAFF69"/>
<path d="M122.001 65.2731L121.118 69.3275C118.842 68.8465 117.362 66.6474 117.782 64.3568L122.001 65.2731Z" fill="#FAFF69"/>
<path d="M144.671 70.1521C144.119 72.3969 141.843 73.7942 139.567 73.2903L140.451 69.2359L144.671 70.1521Z" fill="#FAFF69"/>
<path d="M126.531 70.4958L126.001 70.3813L134.971 29.401L135.502 29.5155L126.531 70.4958Z" fill="#0F214F"/>
<path d="M142.881 31.1191L137.468 29.9508C137.424 29.9508 137.402 29.905 137.402 29.8592L137.623 28.8513C137.623 28.8055 137.667 28.7826 137.711 28.7826L143.125 29.9508C143.169 29.9508 143.191 29.9967 143.191 30.0425L142.97 31.0504C142.97 31.0962 142.926 31.1191 142.881 31.1191Z" fill="#FAFF69"/>
<path d="M92.3741 35.5173L93.8324 60.7376C93.9429 62.6388 92.4846 64.2652 90.5623 64.3797L5.80541 69.2131C4.21456 69.3047 2.82255 68.2967 2.33646 66.8765C2.22598 66.6016 2.15971 66.281 2.15971 65.9832L0.701441 40.7629C0.590965 38.8616 2.04923 37.2353 3.9715 37.1207L88.7284 32.2874C90.6286 32.1729 92.2636 33.6389 92.3741 35.5173Z" fill="#314123"/>
<g opacity="0.5">
<path opacity="0.5" d="M93.5431 55.5605L93.6536 57.5306L1.95905 62.7533L1.84857 60.7833L93.5431 55.5605Z" fill="white"/>
<path opacity="0.5" d="M93.4768 54.6673L93.521 55.1712L1.82647 60.394L1.80438 59.89L93.4768 54.6673Z" fill="white"/>
<path opacity="0.5" d="M93.8528 60.8291C93.8528 61.0124 93.8528 61.1727 93.8086 61.333L2.22423 66.5558C2.20213 66.3725 2.15796 66.2351 2.15796 66.0518L93.8528 60.8291Z" fill="white"/>
<path opacity="0.5" d="M93.6977 58.447L93.8303 60.4398L2.13587 65.6625L2.02539 63.6696L93.6977 58.447Z" fill="white"/>
</g>
<g opacity="0.5">
<path opacity="0.5" d="M92.6815 40.6483L92.792 42.6183L1.09735 47.841L0.986877 45.871L92.6815 40.6483Z" fill="white"/>
<path opacity="0.5" d="M92.6152 39.7321L92.6594 40.2589L0.964778 45.4816L0.942688 44.9777L92.6152 39.7321Z" fill="white"/>
</g>
<g opacity="0.5">
<path opacity="0.5" d="M92.3721 35.4255L0.677551 40.6483C0.677551 40.465 0.677567 40.3047 0.721758 40.1443L92.2837 34.9215C92.3279 35.0819 92.3721 35.2422 92.3721 35.4255Z" fill="white"/>
<path opacity="0.5" d="M92.1741 34.5322L0.810791 39.7549C0.943362 39.1136 1.29687 38.5409 1.76086 38.1286C1.93763 37.9224 2.11439 37.785 2.31324 37.6704L90.4065 32.631C90.6495 32.7226 90.8926 32.883 91.0914 33.0891C91.2461 33.1807 91.4228 33.3411 91.5112 33.5014C91.7764 33.7534 91.9531 34.0512 92.0636 34.349C92.1078 34.3948 92.1299 34.4635 92.1741 34.5322Z" fill="white"/>
</g>
<g opacity="0.5">
<path opacity="0.5" d="M4.65466 37.0978L6.51068 69.1903L5.82573 69.2361C5.36173 69.259 4.91982 69.1903 4.50001 69.0528L2.66608 37.4643C3.06379 37.281 3.50571 37.1665 3.96971 37.1436L4.65466 37.0978Z" fill="white"/>
<path opacity="0.5" d="M5.53844 37.052L7.39441 69.1443L6.88624 69.1672L5.03027 37.0749L5.53844 37.052Z" fill="white"/>
<path opacity="0.5" d="M1.7602 38.1288L3.52777 68.5259C2.9754 68.1135 2.5556 67.5408 2.33465 66.8995C2.31256 66.7849 2.24627 66.6933 2.22418 66.5788C2.20208 66.3955 2.15791 66.2581 2.15791 66.0748L0.677551 40.6714C0.677551 40.4882 0.677567 40.3278 0.721757 40.1675C0.743852 40.0071 0.743857 39.8697 0.810141 39.7551C0.942709 39.0909 1.29621 38.5182 1.7602 38.1288Z" fill="white"/>
</g>
<g opacity="0.5">
<path opacity="0.5" d="M24.2531 35.9756L26.2416 35.8611L28.0976 67.9535L26.1091 68.068L24.2531 35.9756Z" fill="white"/>
<path opacity="0.5" d="M26.6393 35.8378L27.1475 35.8149L29.0035 67.9073L28.4953 67.9302L26.6393 35.8378Z" fill="white"/>
<path opacity="0.5" d="M20.4306 36.2043L20.9388 36.1585L22.7948 68.2738L22.2866 68.2968L20.4306 36.2043Z" fill="white"/>
<path opacity="0.5" d="M21.3365 36.1356L23.325 36.0211L25.2031 68.1364L23.1925 68.2509L21.3365 36.1356Z" fill="white"/>
</g>
<path opacity="0.5" d="M12.8961 36.6168H13.0508L14.9068 68.709L14.7521 68.7319L12.8961 36.6168Z" fill="white"/>
<path opacity="0.5" d="M34.5052 35.4026L34.6598 35.3797L36.5158 67.4722L36.3611 67.4951L34.5052 35.4026Z" fill="white"/>
<g opacity="0.5">
<path opacity="0.5" d="M45.8619 34.7393L47.8284 34.6248L49.6844 66.717L47.718 66.8315L45.8619 34.7393Z" fill="white"/>
<path opacity="0.5" d="M48.2262 34.601L48.7343 34.5781L50.6124 66.6703L50.1042 66.6932L48.2262 34.601Z" fill="white"/>
<path opacity="0.5" d="M42.0175 34.9674L42.5256 34.9445L44.3816 67.0369L43.8734 67.0597L42.0175 34.9674Z" fill="white"/>
<path opacity="0.5" d="M42.9233 34.9215L44.934 34.8069L46.7899 66.8993L44.7793 67.0139L42.9233 34.9215Z" fill="white"/>
</g>
<path opacity="0.5" d="M56.1141 34.1656L56.2688 34.1427L58.1248 66.2351L57.9701 66.258L56.1141 34.1656Z" fill="white"/>
<g opacity="0.5">
<path opacity="0.5" d="M67.4489 33.5024L69.4595 33.3878L71.3156 65.503L69.3049 65.6175L67.4489 33.5024Z" fill="white"/>
<path opacity="0.5" d="M69.8351 33.3641L70.3432 33.3412L72.1992 65.4334L71.691 65.4792L69.8351 33.3641Z" fill="white"/>
<path opacity="0.5" d="M63.6487 33.7305L64.1569 33.7076L66.0128 65.7999L65.5046 65.8229L63.6487 33.7305Z" fill="white"/>
<path opacity="0.5" d="M64.5544 33.6848L66.5209 33.5703L68.3768 65.6624L66.4104 65.777L64.5544 33.6848Z" fill="white"/>
</g>
<path opacity="0.5" d="M77.7008 32.9286L77.8555 32.9057L79.7338 65.021H79.5791L77.7008 32.9286Z" fill="white"/>
<g opacity="0.5">
<path opacity="0.5" d="M90.4058 32.6535C90.6488 32.7452 90.8918 32.9055 91.0907 33.1117L92.8362 63.3485C92.328 63.8754 91.6652 64.2648 90.8918 64.3564L89.0359 32.3099C89.5441 32.3099 89.986 32.4245 90.4058 32.6535Z" fill="white"/>
<path opacity="0.5" d="M91.5327 33.5013C91.7978 33.7533 91.9746 34.0511 92.0851 34.3489L93.6758 61.9515C93.5874 62.2722 93.4549 62.5929 93.2118 62.8677L91.5327 33.5013Z" fill="white"/>
<path opacity="0.5" d="M85.2356 32.4933L85.7437 32.4703L87.5996 64.5628L87.0915 64.5857L85.2356 32.4933Z" fill="white"/>
<path opacity="0.5" d="M86.1415 32.4482L88.1299 32.3336L90.0079 64.4258L87.9974 64.5403L86.1415 32.4482Z" fill="white"/>
</g>
<path d="M6.73156 36.9604L7.08508 43.1681L0.854205 43.5346L0.699549 40.7629C0.589072 38.8617 2.04735 37.2353 3.96964 37.1208L6.73156 36.9604Z" fill="#BE7F30"/>
<path d="M92.3722 35.5173L92.5269 38.289L86.2959 38.6555L85.9423 32.4477L88.7264 32.2874C90.6267 32.1729 92.2617 33.6389 92.3722 35.5173Z" fill="#BE7F30"/>
<path d="M8.36652 62.8678L8.72003 69.0527L5.80349 69.2131C4.21264 69.3047 2.82063 68.2968 2.33454 66.8765L2.11359 63.2114L8.36652 62.8678Z" fill="#BE7F30"/>
<path d="M93.6757 57.9888L93.8304 60.7375C93.9409 62.6388 92.4826 64.2651 90.5603 64.3796L87.9089 64.54L87.5554 58.3552L93.6757 57.9888Z" fill="#BE7F30"/>
<path d="M16.8511 54.7589L16.5859 50.2234C16.5859 50.1318 16.6522 50.0631 16.7185 50.0631L23.8111 49.6508C23.8995 49.6508 23.9657 49.7195 23.9657 49.7882L24.2309 54.3237C24.2309 54.4153 24.1646 54.484 24.0983 54.484L17.0058 54.8964C16.9174 54.8964 16.8511 54.8505 16.8511 54.7589Z" fill="#D9F0F8"/>
<path d="M17.6907 53.3387L17.6024 51.552L24.0541 51.1855L24.1425 52.9722L17.6907 53.3387Z" fill="#0F214F"/>
<path d="M17.7791 53.2242L17.6907 51.6665L24.0541 51.3L24.1425 52.8577L17.7791 53.2242Z" fill="#CED9DF"/>
<path d="M18.9943 52.4911V52.2391L19.7898 52.1933L19.8119 52.4452L18.9943 52.4911Z" fill="#0F214F"/>
<path d="M78.2753 51.2541L78.0101 46.7186C78.0101 46.627 77.9438 46.5812 77.8555 46.5812L70.7632 46.9935C70.6748 46.9935 70.6085 47.0622 70.6306 47.1538L70.8957 51.6894C70.8957 51.781 70.962 51.8268 71.0504 51.8268L78.1427 51.4145C78.2311 51.4145 78.2753 51.3457 78.2753 51.2541Z" fill="#D9F0F8"/>
<path d="M77.2593 49.9254L77.1709 48.1617L70.719 48.5282L70.8074 50.292L77.2593 49.9254Z" fill="#0F214F"/>
<path d="M77.1707 49.8339L77.0823 48.2762L70.719 48.6428L70.8074 50.1775L77.1707 49.8339Z" fill="#CED9DF"/>
<path d="M75.8671 49.2613V48.9864L75.0496 49.0322L75.0717 49.3071L75.8671 49.2613Z" fill="#0F214F"/>
<path d="M56.3793 53.3844L38.1729 54.4153L38.0624 52.4911L56.2688 51.4603L56.3793 53.3844Z" fill="#9D7028"/>
<path d="M62.2344 53.6135L56.556 53.3844L56.4455 51.4603L62.0798 50.6585L62.2344 53.6135Z" fill="#462A0F"/>
<path d="M32.384 55.3086L37.9962 54.4382L37.8857 52.514L32.2293 52.3536L32.384 55.3086Z" fill="#462A0F"/>
<path d="M56.5559 53.3844H56.4013L56.2688 51.4602L56.4455 51.4373L56.5559 53.3844Z" fill="#7A571F"/>
<path d="M38.1729 54.4382H37.9961L37.8856 52.514L38.0624 52.4911L38.1729 54.4382Z" fill="#7A571F"/>
<path d="M92.8362 43.649L1.16359 48.8946L1.11938 48.3449L92.8141 43.0993L92.8362 43.649Z" fill="#0F214F"/>
<path d="M83.8436 13.023L84.8158 31.1191C84.86 31.8063 84.3076 32.4019 83.6226 32.4477L17.05 35.9524C16.343 35.9982 15.7685 35.4484 15.7243 34.7613L14.7521 16.6651C14.708 15.9779 15.2382 15.3823 15.9453 15.3365L82.5179 11.8318C83.2249 11.786 83.8215 12.3129 83.8436 13.023Z" fill="#462A0F"/>
<path d="M18.7735 15.1761L18.8177 16.0008C18.884 17.4209 17.492 18.6578 15.6801 18.7495C15.3929 18.7724 15.1278 18.7494 14.8626 18.7036L14.7521 16.665C14.708 15.9778 15.2383 15.3823 15.9453 15.3365L18.7735 15.1761Z" fill="#704318"/>
<path d="M83.8435 13.0229L83.954 15.0614C83.7551 15.1073 83.5342 15.1302 83.3132 15.1531C81.5014 15.2447 79.9547 14.1681 79.8884 12.748L79.8442 11.9692L82.4957 11.8318C83.2248 11.786 83.8214 12.3128 83.8435 13.0229Z" fill="#704318"/>
<path d="M84.2412 20.1239L15.1277 23.7661L15.0836 22.9644L84.197 19.3451L84.2412 20.1239Z" fill="#0F214F"/>
<path d="M45.5969 22.6665L41.686 22.8727C41.1778 22.8956 40.7801 23.3308 40.8022 23.8577C40.8243 24.3617 41.2662 24.774 41.7965 24.7282L45.7074 24.522C46.2155 24.4991 46.6133 24.0639 46.5912 23.537C46.547 23.033 46.1051 22.6436 45.5969 22.6665Z" fill="#0F214F"/>
<path d="M57.0862 22.071L53.1754 22.2771C52.6672 22.3 52.2695 22.7353 52.2916 23.2622C52.3137 23.7662 52.7556 24.1785 53.2859 24.1327L57.1967 23.9265C57.7049 23.9036 58.1026 23.4683 58.0805 22.9415C58.0584 22.4375 57.6165 22.0252 57.0862 22.071Z" fill="#0F214F"/>
<path d="M53.0871 27.1332L46.1272 27.4997C44.3375 27.5913 43.0781 26.6292 42.9897 25.0716L42.9234 23.6973L44.5363 23.6057L44.6026 24.98C44.6468 25.8275 45.5306 25.9192 46.0388 25.8963L52.9988 25.5298C53.5069 25.5069 54.3907 25.3236 54.3466 24.4761L54.2803 23.1018L55.8932 23.0101L55.9595 24.3845C56.0258 25.9421 54.8989 27.0415 53.0871 27.1332Z" fill="#0F214F"/>
<path d="M69.9015 18.4747L67.449 18.6121C67.2059 18.635 67.0071 18.8412 67.0291 19.0703L67.2501 23.2162C67.2722 23.4682 67.471 23.6514 67.7141 23.6285L70.1666 23.4911C70.4097 23.4682 70.6086 23.262 70.5865 23.0329L70.3655 18.887C70.3655 18.6351 70.1446 18.4518 69.9015 18.4747Z" fill="#D9F0F8"/>
<path d="M69.5259 22.8949L68.3105 22.9636L68.0674 18.5656L69.2828 18.4969L69.5259 22.8949Z" fill="#0F214F"/>
<path d="M69.4374 22.8491L68.3769 22.8949L68.1339 18.5656L69.2165 18.4969L69.4374 22.8491Z" fill="#CED9DF"/>
<path d="M68.9514 22.0023L68.7747 22.0252L68.7526 21.4754L68.9293 21.4525L68.9514 22.0023Z" fill="#0F214F"/>
<path d="M30.2627 20.5591L27.8102 20.6965C27.5672 20.7194 27.3683 20.9256 27.3904 21.1547L27.6114 25.3008C27.6335 25.5528 27.8323 25.736 28.0753 25.7131L30.5279 25.5757C30.7709 25.5528 30.9698 25.3466 30.9477 25.1175L30.7267 20.9714C30.7267 20.7423 30.5058 20.5361 30.2627 20.5591Z" fill="#D9F0F8"/>
<path d="M29.8872 25.0024L28.6719 25.0482L28.4289 20.65L29.6442 20.5813L29.8872 25.0024Z" fill="#0F214F"/>
<path d="M29.7988 24.9352L28.7382 24.981L28.4952 20.6516L29.5779 20.6058L29.7988 24.9352Z" fill="#CED9DF"/>
<path d="M29.3127 24.1096H29.136L29.1139 23.5599L29.2906 23.5369L29.3127 24.1096Z" fill="#0F214F"/>
<path d="M38.1729 34.8301L35.2343 34.9904L34.1295 14.3741L37.0682 14.2137L38.1729 34.8301Z" fill="#0F214F"/>
<path d="M64.3114 33.4555L61.3727 33.5929L60.2679 12.9998L63.2066 12.8395L64.3114 33.4555Z" fill="#0F214F"/>
</svg>
