<svg width="158" height="35" viewBox="0 0 158 35" fill="none" xmlns="http://www.w3.org/2000/svg">
<path d="M9.824 33.16C9.184 33.16 8.672 32.9787 8.288 32.616C7.92533 32.232 7.744 31.7307 7.744 31.112V13.832H1.92C0.64 13.832 0 13.2667 0 12.136C0 11.0053 0.64 10.44 1.92 10.44H17.696C18.976 10.44 19.616 11.0053 19.616 12.136C19.616 13.2667 18.976 13.832 17.696 13.832H11.872V31.112C11.872 31.7307 11.68 32.232 11.296 32.616C10.9333 32.9787 10.4427 33.16 9.824 33.16ZM27.941 17.032C28.4957 16.9893 28.933 17.1067 29.253 17.384C29.573 17.6613 29.733 18.0773 29.733 18.632C29.733 19.208 29.5943 19.6347 29.317 19.912C29.0397 20.1893 28.5383 20.3707 27.813 20.456L26.853 20.552C25.5943 20.68 24.6663 21.1067 24.069 21.832C23.493 22.5573 23.205 23.464 23.205 24.552V31.272C23.205 31.8907 23.013 32.3707 22.629 32.712C22.245 33.032 21.765 33.192 21.189 33.192C20.613 33.192 20.133 33.032 19.749 32.712C19.3863 32.3707 19.205 31.8907 19.205 31.272V18.888C19.205 18.2907 19.3863 17.832 19.749 17.512C20.133 17.192 20.6023 17.032 21.157 17.032C21.7117 17.032 22.1597 17.192 22.501 17.512C22.8423 17.8107 23.013 18.248 23.013 18.824V20.104C23.4183 19.1653 24.0157 18.44 24.805 17.928C25.6157 17.416 26.5117 17.128 27.493 17.064L27.941 17.032ZM38.1765 16.968C40.3525 16.968 41.9632 17.512 43.0085 18.6C44.0752 19.6667 44.6085 21.2987 44.6085 23.496V31.304C44.6085 31.88 44.4378 32.3387 44.0965 32.68C43.7552 33 43.2858 33.16 42.6885 33.16C42.1338 33.16 41.6752 32.9893 41.3125 32.648C40.9712 32.3067 40.8005 31.8587 40.8005 31.304V30.6C40.4378 31.432 39.8618 32.0827 39.0725 32.552C38.3045 33.0213 37.4085 33.256 36.3845 33.256C35.3392 33.256 34.3898 33.0427 33.5365 32.616C32.6832 32.1893 32.0112 31.6027 31.5205 30.856C31.0298 30.1093 30.7845 29.2773 30.7845 28.36C30.7845 27.208 31.0725 26.3013 31.6485 25.64C32.2458 24.9787 33.2058 24.4987 34.5285 24.2C35.8512 23.9013 37.6752 23.752 40.0005 23.752H40.8005V23.016C40.8005 21.9707 40.5765 21.2133 40.1285 20.744C39.6805 20.2533 38.9552 20.008 37.9525 20.008C37.3338 20.008 36.7045 20.104 36.0645 20.296C35.4245 20.4667 34.6672 20.7227 33.7925 21.064C33.2378 21.3413 32.8325 21.48 32.5765 21.48C32.1925 21.48 31.8725 21.3413 31.6165 21.064C31.3818 20.7867 31.2645 20.424 31.2645 19.976C31.2645 19.6133 31.3498 19.304 31.5205 19.048C31.7125 18.7707 32.0218 18.5147 32.4485 18.28C33.1952 17.8747 34.0805 17.5547 35.1045 17.32C36.1498 17.0853 37.1738 16.968 38.1765 16.968ZM37.1845 30.376C38.2512 30.376 39.1152 30.024 39.7765 29.32C40.4592 28.5947 40.8005 27.6667 40.8005 26.536V25.864H40.2245C38.7952 25.864 37.6858 25.928 36.8965 26.056C36.1072 26.184 35.5418 26.408 35.2005 26.728C34.8592 27.048 34.6885 27.4853 34.6885 28.04C34.6885 28.7227 34.9232 29.288 35.3925 29.736C35.8832 30.1627 36.4805 30.376 37.1845 30.376ZM59.5858 18.184C59.7564 17.8 59.9804 17.512 60.2578 17.32C60.5564 17.128 60.8764 17.032 61.2178 17.032C61.7084 17.032 62.1458 17.2027 62.5298 17.544C62.9351 17.864 63.1378 18.2693 63.1378 18.76C63.1378 19.016 63.0738 19.272 62.9458 19.528L57.0258 31.912C56.8338 32.3173 56.5564 32.6267 56.1938 32.84C55.8524 33.0533 55.4684 33.16 55.0417 33.16C54.6364 33.16 54.2418 33.0533 53.8578 32.84C53.4951 32.6267 53.2178 32.3173 53.0258 31.912L47.0738 19.528C46.9671 19.3147 46.9138 19.0693 46.9138 18.792C46.9138 18.3013 47.1164 17.8853 47.5218 17.544C47.9484 17.2027 48.4284 17.032 48.9618 17.032C49.7298 17.032 50.2951 17.4053 50.6578 18.152L55.1378 28.04L59.5858 18.184ZM77.6515 28.712C78.0142 28.712 78.3022 28.8507 78.5155 29.128C78.7502 29.4053 78.8675 29.7787 78.8675 30.248C78.8675 30.9093 78.4728 31.464 77.6835 31.912C76.9582 32.3173 76.1368 32.648 75.2195 32.904C74.3022 33.1387 73.4275 33.256 72.5955 33.256C70.0782 33.256 68.0835 32.5307 66.6115 31.08C65.1395 29.6293 64.4035 27.6453 64.4035 25.128C64.4035 23.528 64.7235 22.1093 65.3635 20.872C66.0035 19.6347 66.8995 18.6747 68.0515 17.992C69.2248 17.3093 70.5475 16.968 72.0195 16.968C73.4275 16.968 74.6542 17.2773 75.6995 17.896C76.7448 18.5147 77.5555 19.3893 78.1315 20.52C78.7075 21.6507 78.9955 22.984 78.9955 24.52C78.9955 25.4373 78.5902 25.896 77.7795 25.896H68.3395C68.4675 27.368 68.8835 28.456 69.5875 29.16C70.2915 29.8427 71.3155 30.184 72.6595 30.184C73.3422 30.184 73.9395 30.0987 74.4515 29.928C74.9848 29.7573 75.5822 29.5227 76.2435 29.224C76.8835 28.8827 77.3528 28.712 77.6515 28.712ZM72.1155 19.784C71.0275 19.784 70.1528 20.1253 69.4915 20.808C68.8515 21.4907 68.4675 22.472 68.3395 23.752H75.5715C75.5288 22.4507 75.2088 21.4693 74.6115 20.808C74.0142 20.1253 73.1822 19.784 72.1155 19.784ZM84.2515 33.192C83.6755 33.192 83.1955 33.032 82.8115 32.712C82.4488 32.3707 82.2675 31.8907 82.2675 31.272V12.168C82.2675 11.5493 82.4488 11.08 82.8115 10.76C83.1955 10.44 83.6755 10.28 84.2515 10.28C84.8275 10.28 85.3075 10.44 85.6915 10.76C86.0755 11.08 86.2675 11.5493 86.2675 12.168V31.272C86.2675 31.8907 86.0755 32.3707 85.6915 32.712C85.3075 33.032 84.8275 33.192 84.2515 33.192Z" fill="#FBB667"/>
<path d="M107.833 10.28C108.43 10.28 108.899 10.472 109.241 10.856C109.603 11.2187 109.785 11.7093 109.785 12.328V31.112C109.785 31.7307 109.603 32.232 109.241 32.616C108.878 33 108.409 33.192 107.833 33.192C107.15 33.192 106.627 32.9467 106.265 32.456L94.5845 17.256V31.112C94.5845 31.7307 94.4138 32.232 94.0725 32.616C93.7312 33 93.2618 33.192 92.6645 33.192C92.0672 33.192 91.5978 33 91.2565 32.616C90.9152 32.232 90.7445 31.7307 90.7445 31.112V12.328C90.7445 11.7093 90.9258 11.2187 91.2885 10.856C91.6512 10.472 92.1312 10.28 92.7285 10.28C93.3898 10.28 93.9018 10.5253 94.2645 11.016L105.913 26.152V12.328C105.913 11.7093 106.083 11.2187 106.425 10.856C106.787 10.472 107.257 10.28 107.833 10.28ZM121.435 33.256C119.835 33.256 118.427 32.9253 117.211 32.264C116.016 31.6027 115.088 30.6533 114.427 29.416C113.765 28.1787 113.435 26.7387 113.435 25.096C113.435 23.4533 113.765 22.024 114.427 20.808C115.088 19.5707 116.016 18.6213 117.211 17.96C118.427 17.2987 119.835 16.968 121.435 16.968C123.035 16.968 124.432 17.2987 125.627 17.96C126.843 18.6213 127.771 19.5707 128.411 20.808C129.072 22.024 129.403 23.4533 129.403 25.096C129.403 26.7387 129.072 28.1787 128.411 29.416C127.771 30.6533 126.843 31.6027 125.627 32.264C124.432 32.9253 123.035 33.256 121.435 33.256ZM121.403 30.152C122.704 30.152 123.696 29.7253 124.379 28.872C125.061 28.0187 125.403 26.76 125.403 25.096C125.403 23.4533 125.061 22.2053 124.379 21.352C123.696 20.4773 122.715 20.04 121.435 20.04C120.155 20.04 119.163 20.4773 118.459 21.352C117.776 22.2053 117.435 23.4533 117.435 25.096C117.435 26.76 117.776 28.0187 118.459 28.872C119.141 29.7253 120.123 30.152 121.403 30.152ZM153.607 18.216C153.756 17.832 153.97 17.544 154.247 17.352C154.546 17.16 154.866 17.064 155.207 17.064C155.698 17.064 156.135 17.2347 156.519 17.576C156.924 17.896 157.127 18.3013 157.127 18.792C157.127 19.0693 157.074 19.3147 156.967 19.528L151.687 31.912C151.516 32.3173 151.25 32.6267 150.887 32.84C150.546 33.0533 150.162 33.16 149.735 33.16C149.33 33.16 148.946 33.0533 148.583 32.84C148.242 32.6267 147.986 32.3173 147.815 31.912L144.007 22.76L140.327 31.912C140.156 32.3173 139.89 32.6267 139.527 32.84C139.186 33.0533 138.802 33.16 138.375 33.16C137.97 33.16 137.586 33.0533 137.223 32.84C136.86 32.6267 136.594 32.3173 136.423 31.912L131.175 19.528C131.068 19.2507 131.015 19.016 131.015 18.824C131.015 18.3333 131.228 17.9173 131.655 17.576C132.082 17.2133 132.551 17.032 133.063 17.032C133.426 17.032 133.756 17.128 134.055 17.32C134.354 17.512 134.578 17.8 134.727 18.184L138.503 27.944L142.375 18.28C142.546 17.8747 142.791 17.576 143.111 17.384C143.431 17.1707 143.783 17.064 144.167 17.064C144.551 17.064 144.903 17.1707 145.223 17.384C145.543 17.576 145.788 17.8747 145.959 18.28L149.863 27.976L153.607 18.216Z" fill="#0F214F"/>
</svg>
